<svg xmlns="http://www.w3.org/2000/svg" version="1.1" width="512" height="512" viewBox="0 0 512 512" style="shape-rendering:geometricPrecision; text-rendering:geometricPrecision; image-rendering:optimizeQuality; fill-rule:evenodd; clip-rule:evenodd">
<rect width="512" height="512" fill="#000000"/>
<g transform="translate(88 18) scale(1.2)">
<g><path style="opacity:1" fill="#f8f8f8" d="M 27.5,19.5 C 97.5008,19.3333 167.501,19.5 237.5,20C 243.974,22.4742 248.474,26.9742 251,33.5C 251.667,148.167 251.667,262.833 251,377.5C 247.991,385.589 242.491,388.089 234.5,385C 204.167,359.333 173.833,333.667 143.5,308C 136.756,302.488 129.756,302.155 122.5,307C 91.8333,333 61.1667,359 30.5,385C 23.5885,388.129 18.4218,386.296 15,379.5C 13.3374,264.247 13.0041,148.914 14,33.5C 16.6873,26.981 21.1873,22.3143 27.5,19.5 Z"/></g>
<g><path style="opacity:1" fill="#090909" d="M 126.5,121.5 C 145.278,120.397 160.945,126.73 173.5,140.5C 174.981,139.52 176.315,138.353 177.5,137C 180.025,136.104 182.192,136.604 184,138.5C 184.667,146.167 184.667,153.833 184,161.5C 182.261,162.894 180.261,163.561 178,163.5C 172.133,162.885 166.3,162.052 160.5,161C 159.056,159.874 158.39,158.374 158.5,156.5C 160.055,153.596 162.055,150.93 164.5,148.5C 147.256,131.125 128.256,128.958 107.5,142C 99.8313,148.655 94.1646,156.655 90.5,166C 84.2124,167.378 81.3791,164.878 82,158.5C 90.0071,137.772 104.84,125.439 126.5,121.5 Z"/></g>
<g><path style="opacity:1" fill="#080808" d="M 174.5,184.5 C 181.35,183.297 184.183,185.963 183,192.5C 172.292,218.507 152.792,230.674 124.5,229C 111.465,226.482 100.465,220.315 91.5,210.5C 89.6905,212.488 87.5239,213.822 85,214.5C 83.2894,214.561 81.956,213.894 81,212.5C 80.3333,204.833 80.3333,197.167 81,189.5C 81.5,189 82,188.5 82.5,188C 89.8237,188.331 97.157,188.997 104.5,190C 106.847,191.191 107.68,193.024 107,195.5C 105.016,197.763 102.849,199.93 100.5,202C 118.385,220.462 138.052,222.462 159.5,208C 162.685,205.116 165.518,201.949 168,198.5C 169.89,193.642 172.057,188.975 174.5,184.5 Z"/></g>
</g>
</svg>
